<mxfile host="app.diagrams.net" modified="2023-07-16T06:57:29.744Z" agent="Mozilla/5.0 (Windows NT 10.0; Win64; x64) AppleWebKit/537.36 (KHTML, like Gecko) Chrome/114.0.0.0 Safari/537.36 Edg/114.0.1823.82" etag="WQPMZUxUNaHKtbVmHjhW" version="21.6.2" type="github">
  <diagram name="Page-1" id="p1Gr9pFNRzvYWjwsrW89">
    <mxGraphModel dx="1232" dy="1106" grid="1" gridSize="10" guides="1" tooltips="1" connect="1" arrows="1" fold="1" page="1" pageScale="1" pageWidth="827" pageHeight="1169" math="0" shadow="0">
      <root>
        <mxCell id="0" />
        <mxCell id="1" parent="0" />
        <mxCell id="OfRuzW8HElULrBoSLvWS-1" value="" style="rounded=1;whiteSpace=wrap;html=1;" vertex="1" parent="1">
          <mxGeometry x="160" y="120" width="370" height="140" as="geometry" />
        </mxCell>
        <mxCell id="OfRuzW8HElULrBoSLvWS-2" value="&lt;font style=&quot;font-size: 14px;&quot;&gt;&lt;b&gt;刀具知识图谱本体模型构建&lt;/b&gt;&lt;/font&gt;" style="text;html=1;strokeColor=none;fillColor=none;align=center;verticalAlign=middle;whiteSpace=wrap;rounded=0;" vertex="1" parent="1">
          <mxGeometry x="240" y="130" width="210" height="30" as="geometry" />
        </mxCell>
        <mxCell id="OfRuzW8HElULrBoSLvWS-3" value="" style="rounded=1;whiteSpace=wrap;html=1;" vertex="1" parent="1">
          <mxGeometry x="160" y="400" width="370" height="140" as="geometry" />
        </mxCell>
        <mxCell id="OfRuzW8HElULrBoSLvWS-4" value="&lt;font style=&quot;font-size: 14px;&quot;&gt;&lt;b&gt;刀具数据融合与知识图谱构建&lt;/b&gt;&lt;/font&gt;" style="text;html=1;strokeColor=none;fillColor=none;align=center;verticalAlign=middle;whiteSpace=wrap;rounded=0;" vertex="1" parent="1">
          <mxGeometry x="240" y="410" width="210" height="30" as="geometry" />
        </mxCell>
        <mxCell id="OfRuzW8HElULrBoSLvWS-5" value="" style="rounded=1;whiteSpace=wrap;html=1;" vertex="1" parent="1">
          <mxGeometry x="160" y="700" width="370" height="140" as="geometry" />
        </mxCell>
        <mxCell id="OfRuzW8HElULrBoSLvWS-6" value="&lt;font style=&quot;font-size: 14px;&quot;&gt;&lt;b&gt;刀具知识图谱本体模型构建&lt;/b&gt;&lt;/font&gt;" style="text;html=1;strokeColor=none;fillColor=none;align=center;verticalAlign=middle;whiteSpace=wrap;rounded=0;" vertex="1" parent="1">
          <mxGeometry x="240" y="710" width="210" height="30" as="geometry" />
        </mxCell>
        <mxCell id="OfRuzW8HElULrBoSLvWS-7" value="刀具本体识别" style="rounded=0;whiteSpace=wrap;html=1;" vertex="1" parent="1">
          <mxGeometry x="220" y="160" width="250" height="40" as="geometry" />
        </mxCell>
        <mxCell id="OfRuzW8HElULrBoSLvWS-8" value="刀具本知识获取" style="rounded=0;whiteSpace=wrap;html=1;" vertex="1" parent="1">
          <mxGeometry x="220" y="210" width="250" height="40" as="geometry" />
        </mxCell>
      </root>
    </mxGraphModel>
  </diagram>
</mxfile>
